<svg xmlns="http://www.w3.org/2000/svg" viewBox="0 0 100 100" fill="none">
  <rect width="100" height="100" rx="24" fill="#1e50e6"/>
  <g transform="translate(50,48) scale(0.34) translate(-100,-100)" stroke="#ffffff" stroke-width="12" fill="none">
    <path d="M 40.9 141.3 A 72 72 0 0 1 40.9 58.7"/>
    <path d="M 58.7 40.9 A 72 72 0 0 1 159.1 58.7"/>
    <path d="M 166.9 76.5 A 72 72 0 0 1 111.5 171.1"/>
    <path d="M 61.7 130.5 A 49 49 0 0 1 61.7 69.5"/>
    <path d="M 74.0 57.5 A 49 49 0 0 1 138.3 69.5"/>
    <path d="M 145.2 84.0 A 49 49 0 0 1 107.8 148.4"/>
  </g>
  <circle cx="50" cy="48" r="7.5" fill="#ffffff"/>
  <rect x="48" y="48" width="4" height="27" fill="#ffffff"/>
</svg>
