<svg xmlns="http://www.w3.org/2000/svg" viewBox="0 0 200 200" fill="none">
  <!-- Кругова монограма: три сегменти подвійних дуг, центральне коло зі стрижнем -->
  <g stroke="#d9dee3" stroke-width="11" fill="none">
    <!-- зовнішнє кільце, 3 сегменти -->
    <path d="M 40.9 141.3 A 72 72 0 0 1 40.9 58.7"/>
    <path d="M 58.7 40.9 A 72 72 0 0 1 159.1 58.7"/>
    <path d="M 166.9 76.5 A 72 72 0 0 1 111.5 171.1"/>
    <!-- внутрішнє кільце, 3 сегменти -->
    <path d="M 61.7 130.5 A 49 49 0 0 1 61.7 69.5"/>
    <path d="M 74.0 57.5 A 49 49 0 0 1 138.3 69.5"/>
    <path d="M 145.2 84.0 A 49 49 0 0 1 107.8 148.4"/>
  </g>
  <!-- центральне коло зі стрижнем -->
  <circle cx="100" cy="95" r="21" fill="#d9dee3"/>
  <rect x="94.5" y="95" width="11" height="76" fill="#d9dee3"/>
</svg>
